<svg width="316" height="198" viewBox="0 0 316 198" fill="none" xmlns="http://www.w3.org/2000/svg">
<path d="M81.2402 197.898L251.668 196.851C268.201 196.737 284.049 190.232 295.894 178.697C307.739 167.162 314.663 151.492 315.216 134.968C315.769 118.443 309.909 102.345 298.862 90.0436C287.816 77.7421 272.439 70.191 255.95 68.971C253.498 52.39 245.91 36.995 234.252 24.9519C222.595 12.9088 207.455 4.82368 190.963 1.83403C174.471 -1.15562 157.457 1.10065 142.314 8.28541C127.172 15.4702 114.662 27.2218 106.546 41.8871C91.4641 36.7694 75.1992 36.2606 59.8265 40.4254C44.4538 44.5902 30.6701 53.2399 20.2335 65.2712C9.79683 77.3025 3.18043 92.1701 1.22818 107.977C-0.724078 123.785 2.07631 139.815 9.27216 154.025C13.5227 166.876 21.735 178.051 32.7305 185.945C43.7261 193.839 56.9396 198.046 70.475 197.964L81.2402 197.898Z" fill="url(#paint0_linear_844_14800)"/>
<defs>
<linearGradient id="paint0_linear_844_14800" x1="157.172" y1="0.666962" x2="159.818" y2="185.528" gradientUnits="userSpaceOnUse">
<stop stop-color="white" stop-opacity="0.604"/>
<stop offset="1" stop-color="white" stop-opacity="0.2"/>
</linearGradient>
</defs>
</svg>
