<svg width="633" height="398" viewBox="0 0 633 398" fill="none" xmlns="http://www.w3.org/2000/svg">
<path d="M470.367 397.288L128.048 395.186C94.8407 394.956 63.0092 381.89 39.2175 358.721C15.4258 335.553 1.51854 304.078 0.407081 270.887C-0.704383 237.696 11.0662 205.362 33.2546 180.654C55.443 155.945 86.329 140.778 119.447 138.328C124.372 105.023 139.614 74.1011 163.029 49.9115C186.444 25.722 216.853 9.48235 249.979 3.47739C283.104 -2.52758 317.279 2.00433 347.694 16.4355C378.11 30.8667 403.236 54.4709 419.537 83.9273C449.831 73.6481 482.501 72.6259 513.378 80.9913C544.255 89.3566 571.941 106.73 592.904 130.896C613.867 155.062 627.156 184.925 631.078 216.675C634.999 248.426 629.374 280.624 614.921 309.165C606.383 334.978 589.888 357.423 567.802 373.279C545.717 389.135 519.176 397.586 491.99 397.421L470.367 397.288Z" fill="url(#paint0_linear_844_14801)"/>
<defs>
<linearGradient id="paint0_linear_844_14801" x1="317.851" y1="1.13323" x2="312.536" y2="372.441" gradientUnits="userSpaceOnUse">
<stop stop-color="white" stop-opacity="0.604"/>
<stop offset="1" stop-color="white" stop-opacity="0.2"/>
</linearGradient>
</defs>
</svg>
