<svg width="34" height="34" viewBox="0 0 34 34" fill="none" xmlns="http://www.w3.org/2000/svg">
<path fill-rule="evenodd" clip-rule="evenodd" d="M17.1454 30.019C18.7044 28.564 20.1472 26.9825 21.4599 25.2898C24.2251 21.7165 25.9073 18.1933 26.0211 15.0605C26.0662 13.7873 25.8613 12.5179 25.4187 11.3279C24.976 10.138 24.3048 9.05205 23.445 8.13493C22.5852 7.21781 21.5546 6.48834 20.4146 5.9901C19.2745 5.49186 18.0486 5.23507 16.81 5.23507C15.5713 5.23507 14.3454 5.49186 13.2054 5.9901C12.0653 6.48834 11.0347 7.21781 10.1749 8.13493C9.31511 9.05205 8.64386 10.138 8.20125 11.3279C7.75864 12.5179 7.55374 13.7873 7.59879 15.0605C7.71401 18.1933 9.39751 21.7165 12.1613 25.2898C13.4741 26.9825 14.9169 28.564 16.4758 30.019C16.6258 30.1584 16.7374 30.2597 16.8106 30.3229L17.1454 30.019ZM15.8103 31.6432C15.8103 31.6432 5.9668 23.1163 5.9668 14.7259C5.9668 11.7678 7.10927 8.93081 9.14288 6.8391C11.1765 4.74738 13.9347 3.57227 16.8106 3.57227C19.6866 3.57227 22.4448 4.74738 24.4784 6.8391C26.512 8.93081 27.6545 11.7678 27.6545 14.7259C27.6545 23.1163 17.811 31.6432 17.811 31.6432C17.2634 32.1619 16.362 32.1563 15.8103 31.6432ZM16.8106 18.6297C17.8172 18.6297 18.7826 18.2184 19.4943 17.4863C20.2061 16.7542 20.606 15.7613 20.606 14.7259C20.606 13.6906 20.2061 12.6976 19.4943 11.9655C18.7826 11.2334 17.8172 10.8221 16.8106 10.8221C15.804 10.8221 14.8387 11.2334 14.1269 11.9655C13.4152 12.6976 13.0153 13.6906 13.0153 14.7259C13.0153 15.7613 13.4152 16.7542 14.1269 17.4863C14.8387 18.2184 15.804 18.6297 16.8106 18.6297ZM16.8106 20.3028C15.3726 20.3028 13.9936 19.7152 12.9768 18.6693C11.9599 17.6235 11.3887 16.205 11.3887 14.7259C11.3887 13.2469 11.9599 11.8284 12.9768 10.7825C13.9936 9.73665 15.3726 9.14909 16.8106 9.14909C18.2486 9.14909 19.6277 9.73665 20.6445 10.7825C21.6613 11.8284 22.2325 13.2469 22.2325 14.7259C22.2325 16.205 21.6613 17.6235 20.6445 18.6693C19.6277 19.7152 18.2486 20.3028 16.8106 20.3028Z" fill="#FF9F14"/>
</svg>
