<svg width="51" height="51" viewBox="0 0 51 51" fill="none" xmlns="http://www.w3.org/2000/svg">
<g clip-path="url(#clip0_805_14165)">
<path d="M25.3965 11.6211C33.163 11.6211 39.459 17.9171 39.459 25.6836C39.459 33.4501 33.163 39.7461 25.3965 39.7461C17.63 39.7461 11.334 33.4501 11.334 25.6836C11.334 17.9171 17.63 11.6211 25.3965 11.6211Z" fill="url(#paint0_radial_805_14165)"/>
<path d="M25.3965 42.0898C26.6909 42.0898 27.7402 43.1391 27.7402 44.4336V46.7773C27.7402 48.0718 26.6909 49.1211 25.3965 49.1211C24.102 49.1211 23.0527 48.0718 23.0527 46.7773V44.4336C23.0527 43.1391 24.102 42.0898 25.3965 42.0898ZM40.3121 37.2847L41.9694 38.942C42.8846 39.8572 42.8846 41.341 41.9694 42.2565C41.0541 43.1717 39.5701 43.1717 38.6548 42.2565L36.9976 40.5992C36.0823 39.6838 36.0823 38.1999 36.9976 37.2847C37.9128 36.3692 39.3969 36.3692 40.3121 37.2847ZM10.4808 37.2847C11.3961 36.3692 12.8801 36.3692 13.7954 37.2847C14.6403 38.1295 14.7053 39.459 13.9904 40.3784L13.7954 40.5992L12.1381 42.2565C11.2228 43.1717 9.73883 43.1717 8.82355 42.2565C7.97865 41.4117 7.91366 40.0821 8.62857 39.1627L8.82355 38.942L10.4808 37.2847ZM6.64648 23.3398C7.94089 23.3398 8.99023 24.3891 8.99023 25.6836C8.99023 26.8856 8.08544 27.8762 6.91981 28.0116L6.64648 28.0273H4.30273C3.00833 28.0273 1.95898 26.978 1.95898 25.6836C1.95898 24.4816 2.86378 23.491 4.02941 23.3556L4.30273 23.3398H6.64648ZM46.4902 23.3398C47.7847 23.3398 48.834 24.3891 48.834 25.6836C48.834 26.978 47.7847 28.0273 46.4902 28.0273H44.1465C42.852 28.0273 41.8027 26.978 41.8027 25.6836C41.8027 24.3891 42.852 23.3398 44.1465 23.3398H46.4902ZM8.82362 9.11066C9.66849 8.26578 10.9979 8.20079 11.9174 8.91568L12.1382 9.11066L13.7955 10.7679C14.7107 11.6832 14.7107 13.1672 13.7955 14.0825C12.9506 14.9274 11.6211 14.9924 10.7017 14.2775L10.4809 14.0825L8.82362 12.4252C7.90831 11.5099 7.90831 10.0259 8.82362 9.11066ZM41.9694 9.1107C42.8846 10.026 42.8846 11.51 41.9694 12.4253L40.3121 14.0825C39.3966 14.9978 37.9128 14.9978 36.9976 14.0825C36.0821 13.1672 36.0821 11.6833 36.9976 10.768L38.6548 9.1107C39.5701 8.1954 41.0539 8.1954 41.9694 9.1107ZM25.3965 2.24609C26.6909 2.24609 27.7402 3.29544 27.7402 4.58984V6.93359C27.7402 8.228 26.6909 9.27734 25.3965 9.27734C24.102 9.27734 23.0527 8.228 23.0527 6.93359V4.58984C23.0527 3.29544 24.102 2.24609 25.3965 2.24609Z" fill="url(#paint1_linear_805_14165)"/>
</g>
<defs>
<radialGradient id="paint0_radial_805_14165" cx="0" cy="0" r="1" gradientUnits="userSpaceOnUse" gradientTransform="translate(15.6309 15.1367) rotate(43.0203) scale(32.5895)">
<stop offset="0.193671" stop-color="#FFE475"/>
<stop offset="0.529275" stop-color="#FFB029"/>
<stop offset="0.780467" stop-color="#FF9100"/>
</radialGradient>
<linearGradient id="paint1_linear_805_14165" x1="1.66601" y1="1.95313" x2="49.127" y2="49.4141" gradientUnits="userSpaceOnUse">
<stop offset="0.166667" stop-color="#FFE475"/>
<stop offset="0.798611" stop-color="#FFBF29"/>
</linearGradient>
<clipPath id="clip0_805_14165">
<rect width="50" height="50" fill="white" transform="translate(0.396484 0.683594)"/>
</clipPath>
</defs>
</svg>
