<svg width="32" height="33" viewBox="0 0 32 33" fill="none" xmlns="http://www.w3.org/2000/svg">
<path fill-rule="evenodd" clip-rule="evenodd" d="M15 5.18945V2.18945H17V5.18945H15ZM22.8619 22.0133C23.573 22.877 24 23.9833 24 25.1893C24 27.9508 21.7614 30.1893 19 30.1893L18.9634 30.1892H11.5388V30.1891L11.5 30.1892C7.35787 30.1892 4 26.8314 4 22.6892C4 20.2296 5.18397 18.0466 7.01308 16.6789C7.0044 16.5168 7 16.3537 7 16.1895C7 11.2189 11.0294 7.18945 16 7.18945C20.9706 7.18945 25 11.2189 25 16.1895C25 18.4105 24.1955 20.4436 22.8619 22.0133ZM21.3082 20.7528C20.6177 20.3928 19.8326 20.1893 19 20.1893C18.1545 20.1893 17.358 20.3992 16.6598 20.7696C16.8825 21.3673 17.0042 22.0142 17.0042 22.6894C17.0042 22.7785 17.0021 22.8671 16.9979 22.9551C17.5289 22.479 18.2306 22.1893 19 22.1893C20.6569 22.1893 22 23.5325 22 25.1893C22 26.8462 20.6569 28.1893 19 28.1893V28.1892H18.9716L18.9332 28.1886H11.5833C11.5556 28.189 11.5278 28.1892 11.5 28.1892C8.46244 28.1892 6 25.7268 6 22.6892C6 19.6516 8.46244 17.1892 11.5 17.1892C13.8631 17.1892 15.878 18.6795 16.6564 20.7714C17.2385 20.462 17.889 20.2642 18.5794 20.2067C17.5548 17.2846 14.7721 15.1892 11.5 15.1892C10.6323 15.1892 9.79904 15.3366 9.02384 15.6076C9.31956 12.0138 12.3299 9.18945 16 9.18945C19.866 9.18945 23 12.3235 23 16.1895C23 17.9329 22.3626 19.5274 21.3082 20.7528ZM30 15.1895H27V17.1895H30V15.1895ZM25.0263 9.82343L27.6243 8.32343L28.6243 10.0555L26.0263 11.5555L25.0263 9.82343ZM22.134 3.56519L20.634 6.16326L22.3661 7.16326L23.8661 4.56519L22.134 3.56519ZM9.63397 7.16326L8.13397 4.56519L9.86603 3.56519L11.366 6.16326L9.63397 7.16326ZM3.37567 10.0555L5.97375 11.5555L6.97375 9.82343L4.37567 8.32343L3.37567 10.0555ZM2 15.1895H5V17.1895H2V15.1895ZM25.0263 22.5555L27.6244 24.0555L28.6244 22.3234L26.0263 20.8234L25.0263 22.5555Z" fill="white"/>
</svg>
