<svg width="32" height="33" viewBox="0 0 32 33" fill="none" xmlns="http://www.w3.org/2000/svg">
<path fill-rule="evenodd" clip-rule="evenodd" d="M30 17.1894C30 20.7923 27.375 23.7594 24 24.1466V22.1264C26.2205 21.751 28 19.7381 28 17.1894C28 14.3591 25.8053 12.1895 23.2493 12.1895C22.5272 12.1895 21.8339 12.3626 21.2108 12.6749C21.1791 12.0931 21.0937 11.5262 20.9599 10.9794L20.9569 10.9806C20.0091 7.03949 16.5839 4.18945 12.6083 4.18945C7.92179 4.18945 4 8.14992 4 13.1895C4 17.2552 6.55261 20.6186 10 21.7666V23.8545C5.40237 22.6492 2 18.3313 2 13.1895C2 7.11432 6.74949 2.18945 12.6083 2.18945C14.6627 2.18945 16.5808 2.79503 18.2055 3.84342C19.452 2.81039 21.0525 2.18945 22.798 2.18945C26.7756 2.18945 30.0001 5.41394 30.0001 9.39155C30.0001 10.8275 29.5798 12.1654 28.8556 13.2888C29.5783 14.4034 30 15.7453 30 17.1894ZM27.4545 11.7132C27.8037 11.0143 28.0001 10.2259 28.0001 9.39155C28.0001 6.51851 25.671 4.18945 22.798 4.18945C21.6913 4.18945 20.6653 4.53504 19.8221 5.12419C21.2318 6.48057 22.2853 8.22949 22.821 10.2033C22.9626 10.1941 23.1054 10.1895 23.2493 10.1895C24.8393 10.1895 26.301 10.7595 27.4545 11.7132ZM14.0021 27.6455C14.0022 27.9815 13.7442 28.1916 13.5021 28.1916C13.2599 28.1916 13.0018 27.9815 13.0017 27.6455C13.0015 27.2171 13.1753 26.6331 13.4744 25.9832C13.5746 26.194 13.6656 26.4031 13.7435 26.6062C13.9389 27.1157 14.0021 27.4615 14.0021 27.6455ZM13.5002 22.1895C13.5002 22.1895 12.9029 22.9197 12.2923 23.9467C11.654 25.0204 11.0013 26.4184 11.0017 27.6455C11.0021 29.0517 12.1218 30.1916 13.5027 30.1916C14.8835 30.1916 16.0025 29.0517 16.0021 27.6455C16.0018 26.5273 15.318 25.0872 14.6655 23.9672C14.0699 22.9449 13.5002 22.1895 13.5002 22.1895ZM19.5021 25.1916C19.7442 25.1916 20.0022 24.9815 20.0021 24.6455C20.0021 24.4615 19.9389 24.1157 19.7435 23.6062C19.6656 23.4031 19.5746 23.194 19.4744 22.9832C19.1753 23.6331 19.0015 24.2171 19.0017 24.6455C19.0018 24.9815 19.2599 25.1916 19.5021 25.1916ZM18.2923 20.9467C18.9029 19.9197 19.5002 19.1895 19.5002 19.1895C19.5002 19.1895 20.0699 19.9449 20.6655 20.9672C21.318 22.0872 22.0018 23.5273 22.0021 24.6455C22.0025 26.0517 20.8835 27.1916 19.5027 27.1916C18.1218 27.1916 17.0021 26.0517 17.0017 24.6455C17.0013 23.4184 17.654 22.0204 18.2923 20.9467Z" fill="#333333"/>
</svg>
